<!-- Jaisocx Software Label -->

<svg
    height="23"
    width="255"
    fill="#222222"
    xmlns="http://www.w3.org/2000/svg" >

        <title> @jaisocx serverside js </title>



        <g>

           <rect
                x="3"
                y="3"
                width="252"
                height="20"
                fill="#efe"
                rx="3"
                ry="3"
            />

            <rect
                x="1"
                y="1"
                width="22"
                height="20"
                fill="#c5f575"
            />

            <rect
                x="23"
                y="1"
                width="190"
                height="20"
                fill="#c5f575"
            />

            <rect
                x="213"
                y="1"
                width="40"
                height="20"
                fill="#e3f3c5"
            />

        </g>



        <g
            font-family="Verdana,Geneva,DejaVu Sans,sans-serif"
            text-rendering="geometricPrecision"
            font-size="129"
            transform="scale(0.1)"
        >

              <text
                  x="275"
                  y="148"
                  fill="#333"
                  textLength="590" >
                    @jaisocx
              </text>

              <text
                  x="905"
                  y="148"
                  fill="#333"
                  textLength="980" >
                    /server_side_js
              </text>

              <text
                  x="2310"
                  y="148"
                  fill="#222"
                  textLength="400" >

              </text>

        </g>



  <svg version="1.0" xmlns="http://www.w3.org/2000/svg"
       x="6"
       y="1"
       width="19" height="19"
       viewBox="0 0 19.0 19.0">

    <g
        transform="translate(0.000,18) scale(0.00190,-0.0019)"
        fill="#399533"
        stroke="white" >

      <path d="M2880 6941 c-503 -291 -1214 -702 -1580 -913 l-665 -384 -3 -1831 -2
                -1832 92 -54 c51 -30 149 -87 218 -127 625 -361 706 -408 747 -431 21 -12 90
                -52 153 -88 63 -37 180 -105 260 -151 80 -46 192 -111 250 -145 58 -34 125
                -73 150 -87 69 -38 365 -209 453 -262 43 -25 80 -46 82 -46 2 0 47 -26 102
                -58 54 -32 118 -70 143 -84 25 -14 133 -76 240 -138 107 -62 214 -124 238
                -138 l42 -24 128 75 c70 41 148 86 173 101 26 14 99 57 164 96 65 38 120 70
                122 70 3 0 53 29 112 63 58 35 198 117 311 182 113 65 252 146 310 180 58 35
                123 73 145 85 59 33 279 161 455 265 85 50 162 94 170 98 17 8 30 16 215 128
                72 43 136 79 143 79 7 0 12 4 12 9 0 5 8 11 18 15 9 3 42 22 72 41 30 19 63
                38 73 41 9 4 17 10 17 15 0 5 7 9 15 9 9 0 18 7 21 15 4 8 12 15 18 15 7 0 20
                6 29 13 16 11 17 145 17 2067 l0 2055 -47 33 c-44 30 -229 142 -398 240 -38
                23 -71 40 -73 38 -5 -6 -12 -1547 -12 -2687 l0 -964 -86 -50 c-114 -66 -119
                -69 -264 -152 -69 -39 -171 -98 -228 -132 -57 -34 -105 -61 -107 -61 -2 0 -36
                -19 -77 -43 -40 -24 -93 -55 -118 -69 -25 -14 -119 -68 -210 -120 -254 -146
                -829 -477 -978 -562 -74 -42 -139 -76 -146 -76 -6 0 -63 30 -126 66 -235 135
                -398 229 -510 295 -63 36 -131 76 -150 86 -19 11 -123 71 -230 133 -107 62
                -251 146 -320 186 -69 39 -198 114 -286 165 -89 52 -263 153 -388 224 -213
                123 -226 132 -232 164 -4 19 -4 323 0 675 5 478 10 643 19 649 7 4 75 44 152
                88 77 45 212 123 300 174 427 248 544 315 549 315 3 0 7 -306 8 -681 l3 -681
                130 -75 c72 -42 186 -108 255 -148 69 -39 184 -105 255 -147 72 -41 195 -112
                275 -158 80 -46 178 -103 218 -127 40 -23 77 -43 81 -43 9 0 42 19 336 190
                260 152 708 412 755 438 25 14 62 36 84 50 l39 24 -7 1826 -7 1827 -87 51
                c-238 139 -1111 644 -1114 644 -2 0 -415 -238 -918 -529z m3650 -5141 c0 -5
                -4 -10 -10 -10 -5 0 -10 5 -10 10 0 6 5 10 10 10 6 0 10 -4 10 -10z"
      />
    </g>
  </svg>

</svg>




