<!-- Nodejs Software Label -->



<svg
    height="23"
    width="285"
    fill="#222222"
    xmlns="http://www.w3.org/2000/svg" >

        <title> Nodejs </title>



        <g>

            <rect
                x="3"
                y="3"
                width="282"
                height="20"
                fill="#efe"
                rx="3"
                ry="3"
            />

            <rect
                x="1"
                y="1"
                width="22"
                height="20"
                fill="#c5f575"
            />

            <rect
                x="23"
                y="1"
                width="220"
                height="20"
                fill="#c5f575"
            />

            <rect
                x="243"
                y="1"
                width="40"
                height="20"
                fill="#e3f3c5"
            />

        </g>



        <g
            font-family="Verdana,Geneva,DejaVu Sans,sans-serif"
            text-rendering="geometricPrecision"
            font-size="129"
            transform="scale(0.1)"
        >

              <text
                  x="340"
                  y="148"
                  fill="#333"
                  textLength="450" >
                Nodejs
              </text>

          <text
              x="1925"
              y="148"
              fill="#333"
              textLength="162" >
            lts
          </text>

          <text
              x="2510"
              y="148"
              fill="#222"
              textLength="230" >
            v24
          </text>

        </g>


  <svg version="1.0" xmlns="http://www.w3.org/2000/svg"
       id="fi_2352271"
       x="6"
       y="1"
       width="140" height="140"
       viewBox="0 0 190.0 190.0">

    <g
        transform="translate(0.000,26) scale(0.43,-0.43)"
        fill="#399533" >

      <path d="M30,12A18,18,0,1,0,48,30,18.021,18.021,0,0,0,30,12Zm0,34A16,16,0,1,1,46,30,16.019,16.019,0,0,1,30,46Z">
      </path>
      <path d="M30,16A14,14,0,1,0,44,30,14.015,14.015,0,0,0,30,16ZM20.105,30.448l.342.683a3.015,3.015,0,0,1,.317,1.341V33a1,1,0,0,1,0,2,2,2,0,0,1-2-2v-.528a.99.99,0,0,0-.106-.447l-.342-.683a3.02,3.02,0,0,1,0-2.683l.342-.684a.99.99,0,0,0,.106-.447V27a2,2,0,0,1,2-2,1,1,0,0,1,0,2v.528a3.015,3.015,0,0,1-.317,1.341l-.342.684A1.013,1.013,0,0,0,20.105,30.448ZM29,27v5a3,3,0,0,1-6,0V31a1,1,0,0,1,2,0v1a1,1,0,0,0,2,0V27H25a1,1,0,0,1,0-2h4a1,1,0,0,1,0,2Zm5,8a3.01,3.01,0,0,1-2.6-1.5,1,1,0,0,1,1.731-1A1,1,0,1,0,34,31a3,3,0,1,1,2.6-4.5,1,1,0,0,1-1.731,1A1,1,0,1,0,34,29a3,3,0,0,1,0,6Zm7.236-8v.528a.99.99,0,0,0,.106.447l.342.683a3.02,3.02,0,0,1,0,2.683l-.342.684a.99.99,0,0,0-.106.447V33a2,2,0,0,1-2,2,1,1,0,1,1,0-2h0v-.528a3.015,3.015,0,0,1,.317-1.341l.342-.684a1.013,1.013,0,0,0,0-.895l-.342-.683a3.015,3.015,0,0,1-.317-1.341V27a1,1,0,1,1,0-2A2,2,0,0,1,41.236,27Z">
      </path>
      <path d="M57.455,27.051l-4.672-1.869a1,1,0,0,1-.6-.688,22.728,22.728,0,0,0-2.607-6.278,1,1,0,0,1-.063-.91L51.5,12.672a.691.691,0,0,0-.085-.708c-.495-.593-1.039-1.186-1.615-1.762s-1.169-1.121-1.765-1.618a.687.687,0,0,0-.707-.083l-4.634,1.985a1,1,0,0,1-.91-.063,22.728,22.728,0,0,0-6.278-2.607,1,1,0,0,1-.688-.6L32.949,2.544a.688.688,0,0,0-.561-.44,27.836,27.836,0,0,0-4.779,0,.687.687,0,0,0-.558.441L25.182,7.217a1,1,0,0,1-.688.6,22.728,22.728,0,0,0-6.278,2.607,1,1,0,0,1-.91.063L12.672,8.5a.7.7,0,0,0-.709.085c-.594.5-1.187,1.04-1.761,1.615S9.08,11.371,8.585,11.964a.689.689,0,0,0-.084.708l1.985,4.634a1,1,0,0,1-.063.91,22.728,22.728,0,0,0-2.607,6.278,1,1,0,0,1-.6.688L2.544,27.051a.688.688,0,0,0-.44.561C2.035,28.377,2,29.181,2,30s.035,1.623.1,2.391a.687.687,0,0,0,.441.558l4.672,1.869a1,1,0,0,1,.6.688,22.728,22.728,0,0,0,2.607,6.278,1,1,0,0,1,.063.91L8.5,47.328a.693.693,0,0,0,.085.709c.5.594,1.04,1.187,1.615,1.761s1.171,1.122,1.764,1.617a.692.692,0,0,0,.708.084l4.634-1.985a.978.978,0,0,1,.393-.081.994.994,0,0,1,.517.144,22.728,22.728,0,0,0,6.278,2.607,1,1,0,0,1,.688.6l1.869,4.673a.688.688,0,0,0,.561.44,27.836,27.836,0,0,0,4.779,0,.687.687,0,0,0,.558-.441l1.869-4.672a1,1,0,0,1,.688-.6,22.728,22.728,0,0,0,6.278-2.607.991.991,0,0,1,.91-.063L47.328,51.5a.689.689,0,0,0,.708-.085c.593-.495,1.186-1.039,1.762-1.615s1.121-1.169,1.618-1.765a.689.689,0,0,0,.083-.707l-1.985-4.634a1,1,0,0,1,.063-.91,22.728,22.728,0,0,0,2.607-6.278,1,1,0,0,1,.6-.688l4.673-1.869a.687.687,0,0,0,.44-.561c.069-.765.1-1.569.1-2.388s-.035-1.623-.1-2.391A.687.687,0,0,0,57.455,27.051ZM30,50A20,20,0,1,1,50,30,20.023,20.023,0,0,1,30,50Z">
      </path>

    </g>

  </svg>

</svg>

