<!-- Typescript Software Label -->



<svg
    height="23"
    width="285"
    fill="#222222"
    xmlns="http://www.w3.org/2000/svg" >

        <title> Typescript </title>



        <g>

            <rect
                x="3"
                y="3"
                width="282"
                height="20"
                fill="#eef"
                rx="3"
                ry="3"
            />

            <rect
                x="1"
                y="1"
                width="22"
                height="20"
                fill="#2233f5"
            />

            <rect
                x="23"
                y="1"
                width="220"
                height="20"
                fill="#2233f5"
            />

            <rect
                x="120"
                y="1"
                width="163"
                height="20"
                fill="#62a3f5"
            />

        </g>



        <g
            font-family="Verdana,Geneva,DejaVu Sans,sans-serif"
            text-rendering="geometricPrecision"
            font-size="129"
            transform="scale(0.1)"
        >

              <text
                  x="340"
                  y="148"
                  fill="#abb"
                  textLength="635" >
                Typescript
              </text>

              <text
                  x="905"
                  y="148"
                  fill="#abb"
                  textLength="1230" >

              </text>

              <text
                  x="1295"
                  y="148"
                  fill="#eef"
                  textLength="1303" >
6.0.0-dev.20260401
              </text>

        </g>


  <svg version="1.0" xmlns="http://www.w3.org/2000/svg"
       id="fi_2352271"
       x="6"
       y="1"
       width="140" height="140"
       viewBox="0 0 190.0 190.0">

    <g
        transform="translate(0.000,26) scale(0.43,-0.43)"
        fill="#abf" >

    <path d="M58.2,25.193,54,23.512a24.734,24.734,0,0,0-2.443-5.884l1.787-4.169a2.672,2.672,0,0,0-.389-2.776c-.533-.64-1.118-1.278-1.736-1.895s-1.255-1.2-1.9-1.74a2.669,2.669,0,0,0-2.775-.386L42.372,8.448a24.734,24.734,0,0,0-5.884-2.443L34.807,1.8A2.677,2.677,0,0,0,32.568.111a29.8,29.8,0,0,0-5.139,0A2.676,2.676,0,0,0,25.193,1.8l-1.681,4.2a24.734,24.734,0,0,0-5.884,2.443L13.459,6.661a2.676,2.676,0,0,0-2.777.388C10.041,7.585,9.4,8.17,8.788,8.786s-1.2,1.257-1.738,1.9a2.669,2.669,0,0,0-.388,2.776l1.786,4.169a24.734,24.734,0,0,0-2.443,5.884L1.8,25.193a2.677,2.677,0,0,0-1.69,2.239C.037,28.257,0,29.121,0,30s.037,1.743.111,2.571A2.676,2.676,0,0,0,1.8,34.807l4.2,1.681a24.734,24.734,0,0,0,2.443,5.884L6.661,46.541a2.676,2.676,0,0,0,.388,2.777c.536.641,1.121,1.279,1.737,1.894s1.257,1.2,1.9,1.738a2.669,2.669,0,0,0,2.776.388l4.169-1.786A24.734,24.734,0,0,0,23.512,54l1.681,4.2a2.677,2.677,0,0,0,2.239,1.69c.825.074,1.689.111,2.568.111s1.743-.037,2.571-.111A2.676,2.676,0,0,0,34.807,58.2L36.488,54a24.734,24.734,0,0,0,5.884-2.443l4.169,1.787a2.68,2.68,0,0,0,2.776-.389c.64-.533,1.278-1.118,1.9-1.736s1.2-1.255,1.74-1.9a2.672,2.672,0,0,0,.386-2.775l-1.786-4.169A24.734,24.734,0,0,0,54,36.488l4.2-1.681h0a2.677,2.677,0,0,0,1.69-2.239C59.963,31.743,60,30.879,60,30s-.037-1.743-.111-2.571A2.676,2.676,0,0,0,58.2,25.193Zm-.3,7.195a.687.687,0,0,1-.44.561l-4.673,1.869a1,1,0,0,0-.6.688,22.728,22.728,0,0,1-2.607,6.278,1,1,0,0,0-.063.91L51.5,47.328a.689.689,0,0,1-.083.707c-.5.6-1.041,1.189-1.618,1.765s-1.169,1.12-1.762,1.615a.689.689,0,0,1-.708.085l-4.634-1.986a.991.991,0,0,0-.91.063,22.728,22.728,0,0,1-6.278,2.607,1,1,0,0,0-.688.6l-1.869,4.672a.687.687,0,0,1-.558.441,27.836,27.836,0,0,1-4.779,0,.688.688,0,0,1-.561-.44l-1.869-4.673a1,1,0,0,0-.688-.6,22.728,22.728,0,0,1-6.278-2.607.994.994,0,0,0-.517-.144.978.978,0,0,0-.393.081L12.672,51.5a.692.692,0,0,1-.708-.084c-.593-.495-1.186-1.039-1.764-1.617s-1.119-1.167-1.615-1.761a.693.693,0,0,1-.085-.709l1.986-4.634a1,1,0,0,0-.063-.91,22.728,22.728,0,0,1-2.607-6.278,1,1,0,0,0-.6-.688L2.545,32.949a.687.687,0,0,1-.441-.558C2.035,31.623,2,30.819,2,30s.035-1.623.1-2.388a.688.688,0,0,1,.44-.561l4.673-1.869a1,1,0,0,0,.6-.688,22.728,22.728,0,0,1,2.607-6.278,1,1,0,0,0,.063-.91L8.5,12.672a.689.689,0,0,1,.084-.708c.495-.593,1.039-1.186,1.617-1.764s1.167-1.119,1.761-1.615a.7.7,0,0,1,.709-.085l4.634,1.986a1,1,0,0,0,.91-.063,22.728,22.728,0,0,1,6.278-2.607,1,1,0,0,0,.688-.6l1.869-4.672a.687.687,0,0,1,.558-.441,27.836,27.836,0,0,1,4.779,0,.688.688,0,0,1,.561.44l1.869,4.673a1,1,0,0,0,.688.6,22.728,22.728,0,0,1,6.278,2.607,1,1,0,0,0,.91.063L47.328,8.5a.687.687,0,0,1,.707.083c.6.5,1.189,1.041,1.765,1.618s1.12,1.169,1.615,1.762a.691.691,0,0,1,.085.708l-1.986,4.634a1,1,0,0,0,.063.91,22.728,22.728,0,0,1,2.607,6.278,1,1,0,0,0,.6.688l4.672,1.869a.687.687,0,0,1,.441.558c.069.768.1,1.572.1,2.391S57.965,31.623,57.9,32.388Z">
    </path>
    <path d="M30,10A20,20,0,1,0,50,30,20.023,20.023,0,0,0,30,10Zm0,38A18,18,0,1,1,48,30,18.021,18.021,0,0,1,30,48Z">
    </path>
    <path d="M30,14A16,16,0,1,0,46,30,16.019,16.019,0,0,0,30,14Zm0,30A14,14,0,1,1,44,30,14.015,14.015,0,0,1,30,44Z">
    </path>
    <path d="M34,29a1,1,0,1,1,.867-1.5,1,1,0,0,0,1.731-1A3,3,0,1,0,34,31a1,1,0,1,1-.867,1.5,1,1,0,0,0-1.731,1A3,3,0,1,0,34,29Z">
    </path>
    <path d="M29,25H25a1,1,0,0,0,0,2h2v5a1,1,0,0,1-2,0V31a1,1,0,0,0-2,0v1a3,3,0,0,0,6,0V27a1,1,0,0,0,0-2Z">
    </path>
    <path d="M20.447,28.869a3.015,3.015,0,0,0,.317-1.341V27a1,1,0,0,0,0-2,2,2,0,0,0-2,2v.528a.99.99,0,0,1-.106.447l-.342.684a3.02,3.02,0,0,0,0,2.683l.342.683a.99.99,0,0,1,.106.447V33a2,2,0,0,0,2,2,1,1,0,0,0,0-2v-.528a3.015,3.015,0,0,0-.317-1.341l-.342-.683a1.013,1.013,0,0,1,0-.895Z">
    </path>
    <path d="M38.236,26a1,1,0,0,0,1,1v.528a3.015,3.015,0,0,0,.317,1.341l.342.683a1.013,1.013,0,0,1,0,.895l-.342.684a3.015,3.015,0,0,0-.317,1.341V33h0a1,1,0,1,0,0,2,2,2,0,0,0,2-2v-.528a.99.99,0,0,1,.106-.447l.342-.684a3.02,3.02,0,0,0,0-2.683l-.342-.683a.99.99,0,0,1-.106-.447V27a2,2,0,0,0-2-2A1,1,0,0,0,38.236,26Z">
    </path>

    </g>

  </svg>

</svg>

